Coordinates
version=1
nRows=11
nColumns=36
inDegrees=yes

Units are S.I. units (second, meters, Newtons, ...)
If the header above contains a line with 'inDegrees', this indicates whether rotational values are in degrees (yes) or radians (no).

endheader
time	pelvis_tilt	pelvis_list	pelvis_rotation	pelvis_tx	pelvis_ty	pelvis_tz	hip_flexion_r	hip_adduction_r	hip_rotation_r	knee_angle_r	knee_angle_r_beta	ankle_angle_r	subtalar_angle_r	mtp_angle_r	hip_flexion_l	hip_adduction_l	hip_rotation_l	knee_angle_l	knee_angle_l_beta	ankle_angle_l	subtalar_angle_l	mtp_angle_l	lumbar_extension	lumbar_bending	lumbar_rotation	arm_flex_r	arm_add_r	arm_rot_r	elbow_flex_r	pro_sup_r	arm_flex_l	arm_add_l	arm_rot_l	elbow_flex_l	pro_sup_l
      1.65000000	    -19.14082894	      3.52661451	     -6.41911555	     -0.29791494	      0.60055014	     -0.59845043	     89.42618356	     -0.54328418	     11.63926527	    107.73451954	      1.88032208	     33.98805410	    -13.44635975	     -7.49905834	     89.85306813	     -4.43060915	      3.06510488	    107.00065236	      1.86751369	     31.54725096	    -18.81234376	     -7.49905834	    -27.70994149	      0.12531088	     -0.95471696	    -13.76930573	    -15.71913966	    -27.24114926	    101.66366843	    110.34101442	    -18.76215750	    -21.72705304	    -19.37785276	     96.07763697	    106.80985575
      1.66000000	    -19.85722770	      3.63836197	     -6.27743745	     -0.29782093	      0.59410034	     -0.59932665	     90.79067820	     -0.54753426	     11.93093390	    108.60903255	      1.89558522	     34.35675011	    -13.33379417	     -7.49912457	     91.23960175	     -3.98244159	      3.41236129	    107.88632973	      1.88297167	     31.73485207	    -18.72088596	     -7.49912457	    -28.15031922	      0.04699426	      0.05909781	    -10.17097046	    -14.35897646	    -26.81961039	    103.10594602	    111.87406659	    -11.79164762	    -20.88874927	    -16.17427192	     96.37877648	    106.59923584
      1.67000000	    -20.61886946	      3.74498038	     -6.17282471	     -0.29792903	      0.58779309	     -0.59982558	     92.17485484	     -0.43115624	     12.21252271	    109.41275803	      1.90961287	     34.52396370	    -13.44562642	     -7.49912709	     92.71680343	     -3.69181012	      3.67627464	    108.75075819	      1.89805879	     31.81925307	    -18.79077507	     -7.49912709	    -28.55182727	     -0.19791222	     -0.16761951	     -5.22920030	    -13.19071170	    -24.87187966	    104.08160608	    112.06720420	     -6.24649626	    -19.45061884	    -14.87358887	     97.69151995	    106.75727370
      1.68000000	    -21.20694091	      3.93938180	     -6.01872309	     -0.29797585	      0.58274282	     -0.60016296	     93.27783883	     -0.39346030	     12.58632012	    110.07506617	      1.92117233	     34.71079314	    -13.41412554	     -7.49914270	     93.87092337	     -3.38204536	      3.72955999	    109.38246609	      1.90908418	     31.78623529	    -18.82240682	     -7.49914270	    -28.84514964	     -0.53905762	     -0.30708193	     -0.14058348	    -12.72423575	    -21.88122658	    103.98535010	    112.56925727	      0.25892639	    -18.61553148	    -12.22486955	     97.06377994	    106.62621916
      1.69000000	    -21.65055250	      4.21566389	     -5.79084367	     -0.29795845	      0.57843849	     -0.60026193	     94.21976975	     -0.43409098	     13.03470207	    110.70897692	      1.93223616	     34.75986178	    -13.41831350	     -7.49914896	     94.78408074	     -3.10050579	      3.62195390	    109.89002528	      1.91794276	     31.72213406	    -18.74232275	     -7.49914896	    -29.49316583	     -1.00419532	     -0.63920378	      4.96598127	    -11.73002695	    -19.37425211	    104.37030121	    112.87687280	      6.59714804	    -17.38128910	    -10.14407612	     97.26931051	    106.68692356
      1.70000000	    -22.03394414	      4.71924566	     -5.46994646	     -0.29783913	      0.57465315	     -0.60029511	     95.15837090	     -0.59671587	     13.73880247	    111.39807277	      1.94426315	     34.81954814	    -13.33422280	     -7.49916124	     95.52442765	     -2.80534390	      3.19192246	    110.30147139	      1.92512385	     31.82181073	    -18.71450833	     -7.49916124	    -30.02257585	     -1.71102928	     -0.91587172	      9.90702829	    -10.93152506	    -16.52002156	    104.25797521	    113.29685116	     13.39078075	    -16.45672632	     -6.85532935	     96.30968102	    106.76787419
      1.71000000	    -22.30819877	      5.08175347	     -5.11223708	     -0.29765731	      0.57166260	     -0.60038081	     95.83772300	     -0.79230539	     14.30081305	    111.96719067	      1.95419613	     34.85813868	    -13.26028907	     -7.49917174	     96.07218796	     -2.54767107	      2.85273311	    110.59512326	      1.93024904	     31.87670010	    -18.60692436	     -7.49917174	    -30.70327955	     -2.25381359	     -1.25143866	     14.81854884	    -10.09351747	    -13.65876180	    104.16223614	    113.62048242	     20.02050534	    -15.09586552	     -3.72921020	     95.58814502	    106.97841228
      1.72000000	    -22.56325244	      5.34060008	     -4.79288538	     -0.29746755	      0.56951657	     -0.60044912	     96.35960567	     -0.94591004	     14.74604283	    112.32854821	      1.96050301	     34.92223570	    -13.16064952	     -7.49918291	     96.50096282	     -2.31543028	      2.60709687	    110.74574773	      1.93287793	     31.96912913	    -18.50165241	     -7.49918291	    -31.46612191	     -2.73569407	     -1.52628599	     19.74884190	     -9.26231140	    -10.71325609	    103.93383964	    113.90581060	     26.42043899	    -13.63686659	     -0.32734978	     94.94171824	    107.26730919
      1.73000000	    -22.71341149	      5.55473305	     -4.46359424	     -0.29696581	      0.56798256	     -0.60071172	     96.67596517	     -1.15534237	     15.17483626	    112.66657356	      1.96640267	     34.97855517	    -13.07055504	     -7.49919383	     96.80122243	     -2.10283551	      2.33615795	    110.89766351	      1.93552936	     31.97125813	    -18.33717349	     -7.49919383	    -32.27038913	     -3.10138134	     -1.84780701	     24.69277755	     -8.54695674	     -7.62355854	    103.65396084	    114.14998642	     32.57751195	    -12.14934140	      3.19166939	     94.38072042	    107.54362237
      1.74000000	    -22.89426219	      5.66160726	     -4.21048941	     -0.29628026	      0.56718167	     -0.60085861	     96.88664573	     -1.29243372	     15.43304080	    112.83547366	      1.96935053	     34.98496444	    -13.04644930	     -7.49920077	     97.04677507	     -2.03795048	      2.16381990	    110.96115380	      1.93663748	     31.84581598	    -18.08275752	     -7.49920077	    -33.02197627	     -3.36192462	     -2.14656461	     29.60508407	     -7.72507733	     -4.47730085	    103.44562318	    114.33257606	     38.40483388	    -10.45535153	      6.44002709	     94.14015873	    107.77827531
      1.75000000	    -23.07032862	      5.63106254	     -4.13568069	     -0.29545482	      0.56699663	     -0.60033614	     96.94109771	     -1.10098241	     15.55257741	    112.91667426	      1.97076775	     35.02040410	    -13.12597081	     -7.49920879	     97.22761527	     -2.30891119	      2.07561329	    111.01702055	      1.93761253	     31.83573706	    -17.82822129	     -7.49920879	    -33.64501654	     -3.56491874	     -2.22005975	     34.36091515	     -6.71922315	     -1.32627780	    103.25436423	    114.47357342	     44.10091388	     -8.83794594	      9.89098950	     93.87527340	    108.03742186
